<svg version="1.1" xmlns="http://www.w3.org/2000/svg" viewBox="0 0 250 250">
  <desc>Created with Snap</desc>
  <defs></defs>
  <g transform="matrix(0.0299,0,0,0.0299,5.9649,136.2569)">
    <rect x="-199.67999572753905" y="-1545.728060913086" width="8368.937234867193" height="2337.792059326172" fill="#7b1fa2" style=""></rect>
    <g transform="matrix(17.2339,0,0,17.2339,6667.2644,-1233.2717)">
      <g>
        <path d="M56.072,26.527c0-0.795-0.625-1.628-1.389-1.85L13.319,12.686c-0.765-0.221-0.872-0.797-0.239-1.279l3.665-2.79   c0.633-0.481,1.777-0.694,2.54-0.472l41.29,11.991c0.764,0.222,1.389,1.055,1.389,1.85V86.99c0,0-0.492,0.427-1.092,0.95   l-3.707,3.219c-0.6,0.523-1.092,0.299-1.092-0.497V26.527z" fill="#ffffff" style=""></path>
        <path d="M67.969,14.562L17.283-0.147c-0.568-0.158-0.568-0.158-0.568-0.158c-0.592,0.257-1.593,0.861-2.226,1.343L0.66,11.565   C0,12.062,0,12.197,0,12.197c0,0.795,0,2.098,0,2.894v68.306c0,0.796,0.626,1.628,1.391,1.85L51.066,99.64   c0.764,0.222,1.391-0.248,1.391-1.044V29.244c0-0.796-0.627-1.628-1.391-1.849l-3.237-0.938v23.475l-7.397-10.563l-6.217,6.347   V22.509l-28.802-8.35c-0.764-0.221-0.871-0.796-0.238-1.278l10.829-8.244c0.633-0.482,1.777-0.694,2.54-0.473L64.191,17.42   c0.764,0.222,1.389,1.055,1.389,1.85v69.37c0,0.795,0.65,1.446,1.447,1.446h0.854c0.797,0,1.447-0.651,1.447-1.446V16.393   C69.328,15.541,68.771,14.796,67.969,14.562z" fill="#ffffff" style=""></path>
        <polygon points="37.109,38.58 40.801,34.809 44.937,40.712 44.937,25.467 37.109,23.195  " fill="#ffffff" style=""></polygon>
      </g>
      <desc>Created with Snap</desc>
      <defs></defs>
    </g>
    <g>
      <g transform="matrix(1.024,0,0,-1.024,0,0)">
        <path d="M682 0L573 0L422 215Q394 213 378 213L205 213L205 0L105 0L105 700L378 700Q514 700 592 635Q670 570 670 456Q670 375 630 318Q590 261 516 235L682 0ZM375 298Q470 298 520 339Q570 380 570 456Q570 532 520 572Q470 613 375 613L205 613L205 298L375 298ZM1297 262Q1297 251 1295 233L865 233Q874 163 926 120Q979 78 1057 78Q1152 78 1210 142L1263 80Q1227 38 1173 16Q1120 -6 1054 -6Q970 -6 905 28Q840 63 804 125Q769 187 769 265Q769 342 803 404Q838 466 898 500Q959 535 1035 535Q1111 535 1170 500Q1230 466 1263 404Q1297 342 1297 262ZM1035 454Q966 454 919 412Q873 370 865 302L1205 302Q1197 369 1150 411Q1104 454 1035 454ZM1713 535Q1814 535 1873 476Q1933 418 1933 305L1933 0L1837 0L1837 294Q1837 371 1800 410Q1763 449 1694 449Q1616 449 1571 403Q1526 358 1526 273L1526 0L1430 0L1430 530L1522 530L1522 450Q1551 491 1600 513Q1650 535 1713 535ZM2379 100L2409 31Q2388 13 2357 3Q2326 -6 2293 -6Q2213 -6 2169 37Q2125 80 2125 160L2125 451L2035 451L2035 530L2125 530L2125 646L2221 646L2221 530L2373 530L2373 451L2221 451L2221 164Q2221 121 2242 98Q2264 75 2304 75Q2348 75 2379 100ZM2987 535Q3097 535 3155 481Q3214 427 3214 320L3214 0L3123 0L3123 70Q3099 33 3054 13Q3010 -6 2949 -6Q2860 -6 2806 37Q2753 80 2753 150Q2753 220 2804 262Q2855 305 2966 305L3118 305L3118 324Q3118 386 3082 419Q3046 452 2976 452Q2929 452 2884 436Q2839 421 2808 395L2768 467Q2809 500 2866 517Q2923 535 2987 535ZM2965 68Q3020 68 3060 92Q3100 117 3118 162L3118 236L2970 236Q2848 236 2848 154Q2848 114 2879 91Q2910 68 2965 68ZM4146 363Q4207 346 4242 301Q4277 257 4277 189Q4277 98 4208 49Q4140 0 4009 0L3675 0L3675 700L3989 700Q4109 700 4174 652Q4240 604 4240 519Q4240 464 4214 424Q4189 384 4146 363ZM3980 619L3775 619L3775 395L3980 395Q4057 395 4098 423Q4140 452 4140 507Q4140 562 4098 590Q4057 619 3980 619ZM4005 81Q4090 81 4133 109Q4176 137 4176 197Q4176 314 4005 314L3775 314L3775 81L4005 81ZM4645 -6Q4566 -6 4503 29Q4440 64 4404 125Q4369 187 4369 265Q4369 343 4404 404Q4440 466 4503 500Q4566 535 4645 535Q4724 535 4786 500Q4849 466 4884 404Q4920 343 4920 265Q4920 187 4884 125Q4849 64 4786 29Q4724 -6 4645 -6ZM4645 78Q4696 78 4736 101Q4777 125 4800 167Q4823 210 4823 265Q4823 320 4800 362Q4777 405 4736 428Q4696 451 4645 451Q4594 451 4553 428Q4513 405 4489 362Q4466 320 4466 265Q4466 210 4489 167Q4513 125 4553 101Q4594 78 4645 78ZM5280 -6Q5201 -6 5138 29Q5075 64 5039 125Q5004 187 5004 265Q5004 343 5039 404Q5075 466 5138 500Q5201 535 5280 535Q5359 535 5421 500Q5484 466 5519 404Q5555 343 5555 265Q5555 187 5519 125Q5484 64 5421 29Q5359 -6 5280 -6ZM5280 78Q5331 78 5371 101Q5412 125 5435 167Q5458 210 5458 265Q5458 320 5435 362Q5412 405 5371 428Q5331 451 5280 451Q5229 451 5188 428Q5148 405 5124 362Q5101 320 5101 265Q5101 210 5124 167Q5148 125 5188 101Q5229 78 5280 78ZM6093 0L5894 247L5784 145L5784 0L5688 0L5688 742L5784 742L5784 266L6073 530L6189 530L5966 311L6211 0L6093 0Z" fill="#ffffff" style=""></path>
      </g>
    </g>
  </g>
</svg>
